<?xml version="1.0" standalone="no"?>
<!DOCTYPE svg PUBLIC "-//W3C//DTD SVG 20010904//EN"
 "http://www.w3.org/TR/2001/REC-SVG-20010904/DTD/svg10.dtd">
<svg version="1.0" xmlns="http://www.w3.org/2000/svg"
 width="264.000000pt" height="264.000000pt" viewBox="0 0 264.000000 264.000000"
 preserveAspectRatio="xMidYMid meet">
<metadata>
Created by potrace 1.11, written by Peter Selinger 2001-2013
</metadata>
<g transform="translate(0.000000,264.000000) scale(0.100000,-0.100000)"
fill="#000000" stroke="none">
<path d="M1265 2215 c-82 -7 -156 -10 -162 -7 -7 2 -27 -2 -45 -8 -32 -13
-133 -21 -483 -39 -93 -5 -194 -14 -223 -21 -29 -6 -79 -10 -111 -7 -113 8
-191 -31 -191 -95 0 -37 21 -157 46 -263 9 -38 18 -82 21 -97 3 -16 10 -28 15
-28 6 0 8 -7 5 -15 -4 -8 -2 -17 4 -20 5 -4 7 -11 4 -16 -4 -5 -2 -9 3 -9 13
0 34 -89 31 -127 -1 -15 3 -40 9 -54 6 -15 14 -44 17 -65 9 -55 109 -320 130
-344 7 -8 16 -25 19 -37 4 -13 11 -23 16 -23 6 0 14 -17 24 -50 14 -52 213
-300 241 -300 3 0 16 -9 28 -21 12 -11 37 -27 55 -34 17 -8 32 -18 32 -22 0
-11 110 -67 175 -88 121 -41 226 -56 340 -49 61 4 122 7 138 8 15 0 27 4 27 8
0 4 19 7 43 7 23 -1 44 0 47 1 5 2 33 6 90 13 14 1 30 5 35 9 9 6 32 10 108
22 36 6 188 83 223 113 15 13 31 23 36 23 4 0 16 8 26 17 10 10 41 38 68 63
52 49 119 143 129 183 4 14 18 35 31 48 13 12 24 28 24 34 0 7 10 25 22 40 12
15 22 35 23 44 1 9 20 55 43 102 23 47 42 91 42 96 0 6 10 32 22 59 12 27 23
65 25 84 2 19 9 37 14 41 6 3 10 9 9 13 -4 16 15 97 37 159 14 38 22 71 20 73
-3 3 8 42 24 86 16 45 27 84 24 86 -2 3 2 16 9 31 8 14 17 50 21 79 6 48 4 56
-21 90 -33 45 -74 81 -92 82 -7 0 -10 5 -7 10 3 6 -1 10 -9 10 -8 0 -23 10
-33 23 -19 25 -20 25 -208 31 -39 2 -79 7 -90 12 -11 6 -67 9 -125 8 -69 0
-112 4 -125 12 -13 8 -74 14 -165 17 -80 3 -152 8 -161 12 -10 3 -20 2 -24 -4
-4 -7 -23 -9 -48 -5 -86 11 -105 11 -252 -1z m375 -1775 c0 -5 -8 -10 -17 -10
-15 0 -16 2 -3 10 19 12 20 12 20 0z"/>
</g>
</svg>
